<?xml version="1.0" encoding="iso-8859-1"?>
<!-- Generator: Adobe Illustrator 19.0.0, SVG Export Plug-In . SVG Version: 6.00 Build 0)  -->
<svg xmlns="http://www.w3.org/2000/svg" xmlns:xlink="http://www.w3.org/1999/xlink" version="1.1" id="Layer_1" x="0px" y="0px" viewBox="0 0 459.486 459.486" style="enable-background:new 0 0 459.486 459.486;" xml:space="preserve" width="512px" height="512px">
<g>
	<g>
		<g>
			<path d="M370.073,180.346c-12.088,0-23.621,2.416-34.149,6.783l-37.012-71.814h42.78c4.977,0,9.024,4.049,9.024,9.025     c0,4.977-4.048,9.025-9.024,9.025h-8.813c-4.143,0-7.5,3.358-7.5,7.5c0,4.142,3.357,7.5,7.5,7.5h8.813     c13.247,0,24.024-10.777,24.024-24.025c0-13.247-10.777-24.025-24.024-24.025h-55.083c-2.615,0-5.042,1.363-6.404,3.596     c-1.361,2.233-1.461,5.015-0.263,7.34l15.374,29.829H172.09l-13.146-25.765h20.805c4.143,0,7.5-3.358,7.5-7.5     c0-4.142-3.357-7.5-7.5-7.5h-55.083c-4.143,0-7.5,3.358-7.5,7.5c0,4.142,3.357,7.5,7.5,7.5h17.438l16.805,32.936l-27.494,42.595     c-12.53-6.696-26.829-10.5-42.002-10.5C40.11,180.346,0,220.456,0,269.758c0,49.303,40.11,89.413,89.413,89.413     c38.454,0,71.314-24.401,83.914-58.532l37.929,2.378l-2.115,6.884c-1.218,3.959,1.005,8.156,4.964,9.374     c0.734,0.226,1.478,0.333,2.208,0.333c3.206,0,6.174-2.072,7.166-5.297l3.161-10.291c0.886,0.069,1.779,0.115,2.683,0.115     c18.955,0,34.377-15.421,34.377-34.377c0-9.359-3.764-17.852-9.853-24.057l53.128-81.998l15.627,30.32     c-25.174,15.836-41.942,43.862-41.942,75.736c0,49.303,40.11,89.413,89.413,89.413c49.303,0,89.413-40.11,89.413-89.413     C459.486,220.456,419.376,180.346,370.073,180.346z M135.832,211.661c9.332,7.471,16.828,17.133,21.706,28.207l-41.596,2.608     L135.832,211.661z M89.413,344.171C48.382,344.171,15,310.79,15,269.758c0-41.031,33.382-74.413,74.413-74.413     c12.177,0,23.669,2.959,33.826,8.166l-25.904,40.131l-8.319,0.521c-13.936,0.214-25.208,11.609-25.208,25.594     c0,13.985,11.272,25.381,25.208,25.594l68.521,4.296C146.002,325.836,119.815,344.171,89.413,344.171z M100.017,269.758     c0,5.847-4.757,10.604-10.604,10.604c-5.848,0-10.604-4.757-10.604-10.604c0-5.847,4.756-10.604,10.604-10.604     C95.26,259.154,100.017,263.91,100.017,269.758z M162.27,284.915l-50.252-3.151c1.911-3.584,2.999-7.67,2.999-12.007     s-1.087-8.423-2.998-12.007l50.252-3.151c1.016,4.897,1.555,9.965,1.555,15.158S163.287,280.02,162.27,284.915z M199.755,287.266     l-22.385-1.404c0.954-5.226,1.456-10.608,1.456-16.105s-0.502-10.877-1.456-16.103l22.385-1.404     c-3.051,5.132-4.809,11.117-4.809,17.508S196.705,282.134,199.755,287.266z M173.327,238.878     c-5.87-15.901-16.139-29.686-29.322-39.88l22.786-35.299l37.372,73.246L173.327,238.878z M231.243,289.038l5.248-17.082     c1.216-3.959-1.01-8.155-4.969-9.371c-3.958-1.215-8.155,1.009-9.371,4.969l-5.242,17.064c-4.251-3.557-6.963-8.896-6.963-14.86     c0-10.684,8.692-19.376,19.377-19.376s19.377,8.692,19.377,19.376C248.7,279.795,241.03,288.071,231.243,289.038z      M241.271,237.527c-3.724-1.385-7.749-2.145-11.948-2.145c-1.331,0-2.642,0.084-3.934,0.232l-4.908,0.308l-40.738-79.841H294.04     L241.271,237.527z M370.073,344.171c-41.031,0-74.413-33.381-74.413-74.413c0-26.074,13.491-49.043,33.848-62.336l23.005,44.637     c1.332,2.583,3.954,4.065,6.673,4.065c1.157,0,2.331-0.269,3.43-0.835c3.683-1.897,5.129-6.42,3.231-10.103l-23.015-44.655     c8.443-3.334,17.627-5.187,27.24-5.187c41.031,0,74.413,33.381,74.413,74.413C444.486,310.79,411.104,344.171,370.073,344.171z" fill="#FFFFFF"/>
			<path d="M376.996,266.89C377.186,267.34,376.815,266.44,376.996,266.89L376.996,266.89z" fill="#FFFFFF"/>
			<path d="M363.012,267.231c-1.103,3.057-0.028,6.603,2.579,8.539c2.471,1.835,5.886,1.968,8.489,0.318     c3.03-1.92,4.315-5.874,2.916-9.198C374.479,260.618,365.268,260.981,363.012,267.231z" fill="#FFFFFF"/>
		</g>
	</g>
</g>
<g>
</g>
<g>
</g>
<g>
</g>
<g>
</g>
<g>
</g>
<g>
</g>
<g>
</g>
<g>
</g>
<g>
</g>
<g>
</g>
<g>
</g>
<g>
</g>
<g>
</g>
<g>
</g>
<g>
</g>
</svg>
