<?xml version="1.0" encoding="iso-8859-1"?>
<!-- Generator: Adobe Illustrator 18.1.1, SVG Export Plug-In . SVG Version: 6.00 Build 0)  -->
<svg version="1.1" id="Capa_1" xmlns="http://www.w3.org/2000/svg" xmlns:xlink="http://www.w3.org/1999/xlink" x="0px" y="0px"
	 viewBox="0 0 409.579 409.579" style="enable-background:new 0 0 409.579 409.579;" xml:space="preserve">
<g>
	<g id="Layer_1_71_">
		<path d="M401.04,141.648l-0.952-3.1c-14.025-45.883-47.73-82.623-97.473-106.252c-37.063-17.604-69.721-21.764-71.046-21.928
			c-19.139-2.441-37.385-3.68-54.23-3.68c-60.367,0-106.289,15.732-136.492,46.76C17.459,77.475,3.921,110.03,0.609,150.208
			c-0.006,0.074-0.011,0.148-0.016,0.223c-0.373,6.221-3.3,61.381,8.419,82.611c1.633,2.959,4.65,4.893,8.021,5.141l17.705,1.305
			c7.807,14.723,22.347,41.268,39.234,67.836c9.363,14.732,17.856,26.969,25.591,37.141c-1.699,8.404,0.194,17.473,5.966,24.693
			c21.669,27.105,44.736,33.293,60.271,33.709c0.616,0.018,1.229,0.025,1.844,0.025c22.315,0,43.369-10.928,62.604-32.504
			c5.886-6.602,8.146-17.896,7.253-26.047c4.5-3.5,15.876-15.758,24.07-26.928c17.854-24.344,31.951-48.156,38.616-59.904
			c45.068-2.098,70.216-17.445,74.566-20.332C422.59,211.684,410.139,171.221,401.04,141.648z M116.165,61.26
			c0.456-1.018,1.642-1.943,3.216-2.436c19.246-6.018,38.759-8.621,58.911-8.383c3.158,0.045,6.522,1.676,7.706,3.623
			c5.639,9.234,8.075,13.947,12.175,23.43c0.478,1.094,0.302,2.125-0.468,2.848c-0.576,0.553-1.465,0.904-2.524,1.023
			c-0.328,0.033-0.684,0.029-1.034,0.033c-16.558,0-32.239,2.131-48.055,7.047c-1.296,0.402-2.893,0.512-4.368,0.191
			c-1.473-0.33-2.719-1.033-3.443-1.961c-7.464-9.49-11.75-14.061-21.358-22.547C115.996,63.305,115.709,62.27,116.165,61.26z
			 M42.723,127.184c7.267-19.99,21.075-34.93,36.78-47.617c1.139-0.916,2.848-1.541,4.485-1.719
			c1.645-0.193,3.146,0.098,4.151,0.754c9.711,6.346,18.74,13.719,26.866,22c1.388,1.416,0.932,3.398-0.667,4.746
			c-11.236,9.471-21.463,20.348-26.602,35.08c-0.102,0.303-0.248,0.6-0.429,0.877c-0.5,0.771-1.26,1.4-2.161,1.758
			c-1.228,0.494-2.599,0.473-3.706-0.092c-11.445-5.777-23.779-9.693-36.436-11.707C42.977,130.934,41.972,129.252,42.723,127.184z
			 M230.93,294.939c-7.428,10.127-14.231,18.566-20.431,25.602c-9.115-0.799-18.479,2.564-25.037,9.92
			c-8.289,9.299-14.754,12.537-18.051,12.428c-1.454-0.039-6.835-0.961-15.018-11.197c-5.904-7.385-14.585-11.232-23.355-11.262
			c-6.995-9.268-15.123-20.988-24.475-35.826c-9.33-14.803-17.852-29.471-24.747-41.795l177.208,13.051
			C250.171,267.047,241.174,280.973,230.93,294.939z"/>
	</g>
</g>
<g>
</g>
<g>
</g>
<g>
</g>
<g>
</g>
<g>
</g>
<g>
</g>
<g>
</g>
<g>
</g>
<g>
</g>
<g>
</g>
<g>
</g>
<g>
</g>
<g>
</g>
<g>
</g>
<g>
</g>
</svg>
