<?xml version="1.0" encoding="iso-8859-1"?>
<!-- Generator: Adobe Illustrator 17.1.0, SVG Export Plug-In . SVG Version: 6.00 Build 0)  -->
<!DOCTYPE svg PUBLIC "-//W3C//DTD SVG 1.1//EN" "http://www.w3.org/Graphics/SVG/1.1/DTD/svg11.dtd">
<svg version="1.1" id="Capa_1" xmlns="http://www.w3.org/2000/svg" xmlns:xlink="http://www.w3.org/1999/xlink" x="0px" y="0px"
	 viewBox="0 0 295.125 295.125" style="enable-background:new 0 0 295.125 295.125;" xml:space="preserve">
<path d="M236.078,126.063c-0.308,0-0.612,0.019-0.919,0.023l-8.13-60.013c-0.005-0.036-0.015-0.07-0.02-0.106h35.616
	c4.143,0,7.5-3.357,7.5-7.5s-3.357-7.5-7.5-7.5h-82c-4.143,0-7.5,3.357-7.5,7.5s3.357,7.5,7.5,7.5h31.559
	c-0.103,0.687-0.117,1.398-0.019,2.12l2.579,19.033l-91.345,12.842l-3.611-11.186c-0.185-0.572-0.438-1.102-0.738-1.594
	l13.924-4.594c3.497-1.153,5.64-4.676,5.056-8.312c-0.585-3.637-3.723-6.311-7.405-6.311h-49c-2.029,0-3.973,0.822-5.386,2.28
	c-1.412,1.457-2.174,3.425-2.11,5.454l0.5,16c0.073,2.364,1.259,4.555,3.197,5.911c1.275,0.893,2.779,1.354,4.3,1.354
	c0.788,0,1.581-0.124,2.349-0.378l20.71-6.832c0.05,0.542,0.154,1.087,0.328,1.627l4.035,12.501c-0.276,0.267-0.54,0.55-0.779,0.866
	L88.39,133.688c-8.13-4.677-17.464-7.483-27.416-7.801c-16.886-0.531-32.672,5.89-44.343,17.939
	c-11.22,11.584-17.115,26.855-16.6,43.003c0.99,31.023,26.066,56.101,57.09,57.091c0.646,0.021,1.285,0.031,1.926,0.031
	c16.129,0,31.192-6.383,42.417-17.971c9.112-9.407,14.712-21.248,16.219-34.014h7.979c2.981,8.91,11.399,15.351,21.299,15.351
	c0.233,0,0.464-0.01,0.696-0.018l4.334,8.667h-4.365c-4.143,0-7.5,3.357-7.5,7.5s3.357,7.5,7.5,7.5h16.5
	c2.6,0,5.014-1.346,6.38-3.557c1.366-2.212,1.491-4.973,0.328-7.298l-9.155-18.31c4.737-4.12,7.741-10.185,7.741-16.943
	c0-6.136-2.476-11.703-6.478-15.76l54.83-59.632l2.54,18.75c-24.926,6.917-43.281,29.794-43.281,56.892
	c0,32.56,26.488,59.048,59.048,59.048c32.559,0,59.047-26.488,59.047-59.048C295.125,152.551,268.637,126.063,236.078,126.063z
	 M197.09,109.799l-48.432,52.674c-0.561-0.042-1.126-0.071-1.697-0.071c-1.131,0-2.242,0.086-3.328,0.248l-13.998-43.368
	L197.09,109.799z M115.136,123.198l15.08,46.717c-1.831,2.049-3.292,4.435-4.278,7.052h-8.379
	c-1.795-13.318-8.056-25.24-17.216-34.216L115.136,123.198z M89.426,176.967c-1.178-4.368-3.273-8.363-6.073-11.76l7.848-10.373
	c5.654,6.042,9.634,13.667,11.178,22.133H89.426z M75.51,185.126c0,9.023-7.341,16.364-16.364,16.364
	c-9.022,0-16.363-7.341-16.363-16.364c0-9.022,7.341-16.363,16.363-16.363C68.169,168.763,75.51,176.104,75.51,185.126z
	 M90.689,215.544c-8.709,8.991-20.47,13.793-33.09,13.384c-23.136-0.738-41.838-19.44-42.576-42.577
	c-0.385-12.052,4.013-23.448,12.382-32.089c8.374-8.645,19.611-13.406,31.643-13.406c0.481,0,0.962,0.008,1.447,0.023
	c6.74,0.215,13.099,1.964,18.752,4.894l-7.911,10.457c-3.75-1.588-7.869-2.466-12.191-2.466c-17.294,0-31.363,14.069-31.363,31.363
	s14.069,31.364,31.363,31.364c14.944,0,27.473-10.51,30.604-24.523h12.781C101.116,200.804,97.056,208.972,90.689,215.544z
	 M236.145,168.763c9.023,0,16.364,7.341,16.364,16.363c0,9.023-7.341,16.364-16.364,16.364c-9.022,0-16.363-7.341-16.363-16.364
	C219.782,176.104,227.123,168.763,236.145,168.763z M236.078,229.158c-24.288,0-44.048-19.76-44.048-44.048
	c0-19.494,12.735-36.061,30.319-41.845l1.749,12.908c-11.331,4.732-19.316,15.927-19.316,28.954
	c0,17.294,14.069,31.364,31.363,31.364s31.364-14.07,31.364-31.364c0-16.356-12.588-29.82-28.583-31.233l-1.734-12.802
	c23.773,0.595,42.933,20.105,42.933,44.019C280.125,209.398,260.365,229.158,236.078,229.158z"/>
<g>
</g>
<g>
</g>
<g>
</g>
<g>
</g>
<g>
</g>
<g>
</g>
<g>
</g>
<g>
</g>
<g>
</g>
<g>
</g>
<g>
</g>
<g>
</g>
<g>
</g>
<g>
</g>
<g>
</g>
</svg>
